<mxfile host="65bd71144e" scale="4" border="0">
    <diagram id="QmoPaFsdlkHWeEuJfZWX" name="Page-1">
        <mxGraphModel dx="2111" dy="633" grid="1" gridSize="10" guides="1" tooltips="1" connect="1" arrows="1" fold="1" page="1" pageScale="1" pageWidth="1169" pageHeight="827" math="1" shadow="0">
            <root>
                <mxCell id="0"/>
                <mxCell id="1" parent="0"/>
                <mxCell id="2" value="&lt;font style=&quot;font-size: 40px;&quot;&gt;\(\frac{\textrm{ALG}}{\textrm{OPT}} \le \frac{\textrm{ALG}}{\textrm{LB}}\)&lt;/font&gt;" style="text;html=1;align=center;verticalAlign=middle;resizable=0;points=[];autosize=1;strokeColor=none;fillColor=none;fontSize=30;" vertex="1" parent="1">
                    <mxGeometry x="-235" y="270" width="1290" height="60" as="geometry"/>
                </mxCell>
                <mxCell id="5" style="edgeStyle=none;html=1;rounded=0;curved=1;sketch=1;curveFitting=1;jiggle=2;dashed=1;" edge="1" parent="1" source="4" target="9">
                    <mxGeometry relative="1" as="geometry">
                        <mxPoint x="300" y="340" as="targetPoint"/>
                    </mxGeometry>
                </mxCell>
                <mxCell id="4" value="&lt;font face=&quot;Comic Sans MS&quot;&gt;\(\mathcal{NP}\)-hard&lt;/font&gt;" style="text;html=1;align=center;verticalAlign=middle;resizable=0;points=[];autosize=1;strokeColor=none;fillColor=none;" vertex="1" parent="1">
                    <mxGeometry x="170" y="370" width="150" height="30" as="geometry"/>
                </mxCell>
                <mxCell id="6" value="&lt;font style=&quot;font-size: 20px;&quot;&gt;\(\because \textrm{OPT} \ge \textrm{LB}\)&lt;/font&gt;" style="text;html=1;align=center;verticalAlign=middle;resizable=0;points=[];autosize=1;strokeColor=none;fillColor=none;" vertex="1" parent="1">
                    <mxGeometry x="210" y="365" width="390" height="40" as="geometry"/>
                </mxCell>
                <mxCell id="8" value="" style="ellipse;whiteSpace=wrap;html=1;sketch=1;curveFitting=1;jiggle=2;fillColor=none;strokeColor=#FF8000;" vertex="1" parent="1">
                    <mxGeometry x="430" y="250" width="120" height="95" as="geometry"/>
                </mxCell>
                <mxCell id="9" value="" style="ellipse;whiteSpace=wrap;html=1;sketch=1;curveFitting=1;jiggle=2;fillColor=none;strokeColor=#333333;" vertex="1" parent="1">
                    <mxGeometry x="288" y="297" width="90" height="40" as="geometry"/>
                </mxCell>
                <mxCell id="12" style="edgeStyle=none;html=1;sketch=1;curveFitting=1;jiggle=2;rounded=0;curved=1;" edge="1" parent="1" source="10" target="11">
                    <mxGeometry relative="1" as="geometry">
                        <Array as="points">
                            <mxPoint x="530" y="380"/>
                        </Array>
                    </mxGeometry>
                </mxCell>
                <mxCell id="10" value="&lt;font face=&quot;Comic Sans MS&quot;&gt;e.g. \(\max\{t_{\textrm{max}}, T_{\textrm{AVG}}\}\)&lt;/font&gt;" style="text;html=1;align=center;verticalAlign=middle;resizable=0;points=[];autosize=1;strokeColor=none;fillColor=none;" vertex="1" parent="1">
                    <mxGeometry x="420" y="405" width="330" height="30" as="geometry"/>
                </mxCell>
                <mxCell id="11" value="" style="ellipse;whiteSpace=wrap;html=1;sketch=1;curveFitting=1;jiggle=2;fillColor=none;strokeColor=#333333;" vertex="1" parent="1">
                    <mxGeometry x="433" y="365" width="50" height="40" as="geometry"/>
                </mxCell>
            </root>
        </mxGraphModel>
    </diagram>
</mxfile>
